<svg xmlns="http://www.w3.org/2000/svg" viewBox="0 0 720 260" role="img" aria-labelledby="title desc">
  <title id="title">Nuvoread reader preview</title>
  <desc id="desc">A compact reading control beside highlighted text.</desc>
  <defs>
    <linearGradient id="heroBg" x1="36" y1="22" x2="672" y2="250" gradientUnits="userSpaceOnUse">
      <stop stop-color="#EEF2FF"/>
      <stop offset="1" stop-color="#F7F9FC"/>
    </linearGradient>
    <linearGradient id="button" x1="522" y1="84" x2="584" y2="146" gradientUnits="userSpaceOnUse">
      <stop stop-color="#FFE987"/>
      <stop offset="1" stop-color="#E3A900"/>
    </linearGradient>
    <filter id="cardShadow" x="-20" y="-24" width="760" height="312" color-interpolation-filters="sRGB">
      <feDropShadow dx="0" dy="18" stdDeviation="18" flood-color="#25324A" flood-opacity=".16"/>
    </filter>
  </defs>
  <rect x="12" y="12" width="696" height="236" rx="28" fill="url(#heroBg)"/>
  <g filter="url(#cardShadow)">
    <rect x="62" y="56" width="424" height="148" rx="18" fill="#FFFFFF"/>
    <rect x="94" y="88" width="248" height="13" rx="6.5" fill="#1B2030" opacity=".88"/>
    <rect x="94" y="116" width="328" height="12" rx="6" fill="#CBD3E4"/>
    <rect x="94" y="142" width="296" height="12" rx="6" fill="#CBD3E4"/>
    <rect x="94" y="168" width="168" height="12" rx="6" fill="#CBD3E4"/>
    <rect x="190" y="112" width="118" height="20" rx="6" fill="#FFE77D"/>
    <rect x="224" y="112" width="43" height="20" rx="6" fill="#FFD544"/>
  </g>
  <g filter="url(#cardShadow)">
    <rect x="516" y="42" width="76" height="176" rx="38" fill="#171A22"/>
    <rect x="537" y="61" width="34" height="6" rx="3" fill="#D8DDEB"/>
    <circle cx="554" cy="110" r="25" fill="url(#button)"/>
    <path d="M546 97.5v25l20.5-12.5L546 97.5Z" fill="#151821"/>
    <rect x="539" y="149" width="30" height="7" rx="3.5" fill="#FFD544"/>
    <rect x="538" y="181" width="32" height="8" rx="4" fill="#FFFFFF" opacity=".16"/>
  </g>
  <path d="M470 110c12-7 24-7 36 0" fill="none" stroke="#FFD544" stroke-width="5" stroke-linecap="round"/>
  <path d="M470 135c12 7 24 7 36 0" fill="none" stroke="#FFD544" stroke-width="5" stroke-linecap="round" opacity=".55"/>
</svg>
